mtllib model_21.mtl
o model_21
v 0.004630297888070345 14.078554153442383 3.179494619369507 
v 0.008953617885708809 14.06593132019043 3.270437479019165 
v 0.02974424697458744 14.07530403137207 3.1774544715881348 
v 0.03683816269040108 14.06230354309082 3.2681732177734375 
v 0.0515667162835598 14.062908172607422 3.1735787391662598 
v 0.06106413155794144 14.048508644104004 3.263869047164917 
v 0.0667715072631836 14.043179512023926 3.1684467792510986 
v 0.07794318348169327 14.026663780212402 3.2581725120544434 
v 0.08491060137748718 14.000019073486328 3.2519595623016357 
v 0.07304441183805466 14.019218444824219 3.1628475189208984 
v 0.08089981228113174 13.972732543945312 3.2461655139923096 
v 0.06943296641111374 13.994614601135254 3.157632827758789 
v 0.0665234699845314 13.948884963989258 3.2416810989379883 
v 0.05648533254861832 13.973148345947266 3.1535964012145996 
v 0.04397176206111908 13.932104110717773 3.2391881942749023 
v 0.03617093712091446 13.958030700683594 3.1513469219207764 
v 0.016677552834153175 13.924999237060547 3.2390615940093994 
v 0.011585311964154243 13.951643943786621 3.1512351036071777 
v -0.011204511858522892 13.928627014160156 3.241325855255127 
v -0.01352863758802414 13.954894065856934 3.1532702445983887 
v -0.03543047979474068 13.942384719848633 3.2456300258636475 
v -0.03534862771630287 13.967328071594238 3.1571507453918457 
v -0.9862235188484192 -5.606492519378662 0.9874603152275085 
v -0.9622703790664673 -5.609251499176025 0.9954698085784912 
v -1.0172754526138306 -5.654603481292725 1.0593653917312622 
v -0.9906807541847229 -5.657627105712891 1.0682610273361206 
v -0.9391183853149414 -5.619569301605225 0.9971495866775513 
v -0.9649789333343506 -5.669116497039795 1.0701258182525635 
v -0.9202947020530701 -5.635895729064941 0.9922367930412292 
v -0.9440816640853882 -5.687257289886475 1.064672589302063 
v -0.9311662912368774 -5.709290981292725 1.0527338981628418 
v -0.9086641669273376 -5.65577507019043 0.9814811944961548 
v -0.9282047152519226 -5.731929302215576 1.0361257791519165 
v -0.9059953093528748 -5.676146030426025 0.9665237069129944 
v -0.9356458783149719 -5.751619815826416 1.0173802375793457 
v -0.9126973152160645 -5.69390869140625 0.9496380686759949 
v -0.9523562788963318 -5.765451908111572 0.9993454813957214 
v -0.9277507662773132 -5.706343173980713 0.9333951473236084 
v -0.9757934808731079 -5.771309852600098 0.9847726225852966 
v -0.948858916759491 -5.711596488952637 0.9202732443809509 
v -1.0023882389068604 -5.768248558044434 0.9758818745613098 
v -0.9728120565414429 -5.7088751792907715 0.9122589230537415 
v -1.028090000152588 -5.7567596435546875 0.9740170836448669 
v -0.995963990688324 -5.698519706726074 0.910584032535553 
v -0.43685927987098694 -4.095130443572998 0.88926762342453 
v -0.4376976490020752 -4.098531723022461 0.9144304990768433 
v -0.5129353404045105 -4.0436177253723145 0.8922669291496277 
v -0.5138629674911499 -4.047397136688232 0.9202051162719727 
v -0.4432785212993622 -4.110021114349365 0.936394453048706 
v -0.5200589895248413 -4.060133934020996 0.9445889592170715 
v -0.45275112986564636 -4.127859592437744 0.9518096446990967 
v -0.5305783152580261 -4.07993745803833 0.9617083072662354 
v -0.5438161492347717 -4.103785037994385 0.968948483467102 
v -0.4646743834018707 -4.149326324462891 0.9583340883255005 
v -0.5577609539031982 -4.1280107498168945 0.9652188420295715 
v -0.4772350788116455 -4.171133041381836 0.9549744725227356 
v -0.5702868700027466 -4.1489481925964355 0.9510793089866638 
v -0.4885183572769165 -4.1899919509887695 0.9422372579574585 
v -0.5794891715049744 -4.163423538208008 0.9286820292472839 
v -0.4968078136444092 -4.203031063079834 0.9220650792121887 
v -0.5839662551879883 -4.169205665588379 0.9014400839805603 
v -0.500840961933136 -4.208246231079102 0.8975302577018738 
v -0.5830361247062683 -4.165464401245117 0.8735018372535706 
v -0.5000025629997253 -4.204882621765137 0.872362494468689 
v -0.5768425464630127 -4.1526899337768555 0.8491179943084717 
v -0.49442169070243835 -4.193393707275391 0.8504034280776978 
vn -0.06035032123327255 0.9880928993225098 0.1415284425020218 
vn -0.06035032123327255 0.9880928993225098 0.1415284425020218 
vn 0.32584381103515625 0.9393666982650757 0.10684575140476227 
vn 0.32584381103515625 0.9393666982650757 0.10684575140476227 
vn 0.6615244746208191 0.7482396960258484 0.05022686347365379 
vn 0.6615244746208191 0.7482396960258484 0.05022686347365379 
vn 0.8953952789306641 0.4443657100200653 -0.028397228568792343 
vn 0.8953952789306641 0.4443657100200653 -0.028397228568792343 
vn 0.989837110042572 0.0829169899225235 -0.11553031951189041 
vn 0.989837110042572 0.0829169899225235 -0.11553031951189041 
vn 0.9349851608276367 -0.29744020104408264 -0.19321508705615997 
vn 0.9349851608276367 -0.29744020104408264 -0.19321508705615997 
vn 0.7370554804801941 -0.6250354647636414 -0.25706008076667786 
vn 0.7370554804801941 -0.6250354647636414 -0.25706008076667786 
vn 0.4229089915752411 -0.8582861423492432 -0.29067665338516235 
vn 0.4229089915752411 -0.8582861423492432 -0.29067665338516235 
vn 0.052841443568468094 -0.9553611278533936 -0.29067665338516235 
vn 0.052841443568468094 -0.9553611278533936 -0.29067665338516235 
vn -0.33466964960098267 -0.9053888320922852 -0.2612801790237427 
vn -0.33466964960098267 -0.9053888320922852 -0.2612801790237427 
vn -0.6674329042434692 -0.7168105840682983 -0.2017817199230194 
vn -0.6674329042434692 -0.7168105840682983 -0.2017817199230194 
vn -0.25838300585746765 0.8513685464859009 0.456519216299057 
vn 0.10340359061956406 0.8082957863807678 0.5796254277229309 
vn -0.25838300585746765 0.8513685464859009 0.456519216299057 
vn 0.10340359061956406 0.8082957863807678 0.5796254277229309 
vn 0.45975303649902344 0.6507532596588135 0.6042742133140564 
vn 0.45975303649902344 0.6507532596588135 0.6042742133140564 
vn 0.7494006752967834 0.3985583484172821 0.528724730014801 
vn 0.7494006752967834 0.3985583484172821 0.528724730014801 
vn 0.9258595108985901 0.0979442298412323 0.3649536371231079 
vn 0.9258595108985901 0.0979442298412323 0.3649536371231079 
vn 0.9664815068244934 -0.21700046956539154 0.1372016966342926 
vn 0.9664815068244934 -0.21700046956539154 0.1372016966342926 
vn 0.8624469637870789 -0.4906710982322693 -0.1242060661315918 
vn 0.8624469637870789 -0.4906710982322693 -0.1242060661315918 
vn 0.6315919160842896 -0.6796368360519409 -0.37307560443878174 
vn 0.6315919160842896 -0.6796368360519409 -0.37307560443878174 
vn 0.31289613246917725 -0.7578654289245605 -0.5724822878837585 
vn 0.31289613246917725 -0.7578654289245605 -0.5724822878837585 
vn -0.05471094697713852 -0.7180336713790894 -0.6938546895980835 
vn -0.05471094697713852 -0.7180336713790894 -0.6938546895980835 
vn -0.40935173630714417 -0.5582852959632874 -0.7216291427612305 
vn -0.40935173630714417 -0.5582852959632874 -0.7216291427612305 
vn 0.5586065053939819 0.8266674280166626 -0.06767380982637405 
vn 0.5467976927757263 0.7737825512886047 0.3198012113571167 
vn 0.5586065053939819 0.8266674280166626 -0.06767380982637405 
vn 0.5467976927757263 0.7737825512886047 0.3198012113571167 
vn 0.45828959345817566 0.6006121039390564 0.6551609039306641 
vn 0.45828959345817566 0.6006121039390564 0.6551609039306641 
vn 0.3126577138900757 0.3299742639064789 0.8907088041305542 
vn 0.3126577138900757 0.3299742639064789 0.8907088041305542 
vn 0.13070669770240784 0 0.991421103477478 
vn 0.13070669770240784 0 0.991421103477478 
vn -0.06358230859041214 -0.3365223705768585 0.9395264387130737 
vn -0.06358230859041214 -0.3365223705768585 0.9395264387130737 
vn -0.2358509600162506 -0.6235221028327942 0.7453821301460266 
vn -0.2358509600162506 -0.6235221028327942 0.7453821301460266 
vn -0.3576742708683014 -0.8253015279769897 0.43697428703308105 
vn -0.3576742708683014 -0.8253015279769897 0.43697428703308105 
vn -0.41874539852142334 -0.9061881303787231 0.058952588587999344 
vn -0.41874539852142334 -0.9061881303787231 0.058952588587999344 
vn -0.4107310175895691 -0.8522700071334839 -0.3239381015300751 
vn -0.4107310175895691 -0.8522700071334839 -0.3239381015300751 
vn -0.32140594720840454 -0.6773486733436584 -0.661737859249115 
vn -0.32140594720840454 -0.6773486733436584 -0.661737859249115 
s on 
f 1//1 2//2 3//3 
f 2//2 4//4 3//3 
f 3//3 4//4 5//5 
f 4//4 6//6 5//5 
f 5//5 6//6 7//7 
f 6//6 8//8 7//7 
f 7//7 8//8 7//7 
f 8//8 9//9 7//7 
f 7//7 9//9 10//10 
f 9//9 11//11 10//10 
f 10//10 11//11 12//12 
f 11//11 13//13 12//12 
f 12//12 13//13 14//14 
f 13//13 15//15 14//14 
f 14//14 15//15 16//16 
f 15//15 17//17 16//16 
f 16//16 17//17 18//18 
f 17//17 19//19 18//18 
f 18//18 19//19 20//20 
f 19//19 21//21 20//20 
f 20//20 21//21 22//22 
f 21//21 22//22 22//22 
f 22//22 22//22 23//23 
f 22//22 23//23 23//23 
f 23//23 23//23 24//24 
f 23//23 25//25 24//24 
f 24//24 25//25 24//24 
f 25//25 26//26 24//24 
f 24//24 26//26 27//27 
f 26//26 28//28 27//27 
f 27//27 28//28 29//29 
f 28//28 30//30 29//29 
f 29//29 30//30 29//29 
f 30//30 31//31 29//29 
f 29//29 31//31 32//32 
f 31//31 33//33 32//32 
f 32//32 33//33 34//34 
f 33//33 35//35 34//34 
f 34//34 35//35 36//36 
f 35//35 37//37 36//36 
f 36//36 37//37 38//38 
f 37//37 39//39 38//38 
f 38//38 39//39 40//40 
f 39//39 41//41 40//40 
f 40//40 41//41 42//42 
f 41//41 43//43 42//42 
f 42//42 43//43 44//44 
f 43//43 44//44 44//44 
f 44//44 44//44 45//45 
f 44//44 45//45 45//45 
f 45//45 45//45 46//46 
f 45//45 47//47 46//46 
f 46//46 47//47 46//46 
f 47//47 48//48 46//46 
f 46//46 48//48 49//49 
f 48//48 50//50 49//49 
f 49//49 50//50 51//51 
f 50//50 52//52 51//51 
f 51//51 52//52 51//51 
f 52//52 53//53 51//51 
f 51//51 53//53 54//54 
f 53//53 55//55 54//54 
f 54//54 55//55 56//56 
f 55//55 57//57 56//56 
f 56//56 57//57 58//58 
f 57//57 59//59 58//58 
f 58//58 59//59 60//60 
f 59//59 61//61 60//60 
f 60//60 61//61 62//62 
f 61//61 63//63 62//62 
f 62//62 63//63 64//64 
f 63//63 65//65 64//64 
f 64//64 65//65 66//66 

